<?xml version="1.0" encoding="UTF-8" standalone="no"?>
<!-- Created with Inkscape (http://www.inkscape.org/) -->

<svg
   xmlns:dc="http://purl.org/dc/elements/1.1/"
   xmlns:cc="http://creativecommons.org/ns#"
   xmlns:rdf="http://www.w3.org/1999/02/22-rdf-syntax-ns#"
   xmlns:svg="http://www.w3.org/2000/svg"
   xmlns="http://www.w3.org/2000/svg"
   xmlns:sodipodi="http://sodipodi.sourceforge.net/DTD/sodipodi-0.dtd"
   xmlns:inkscape="http://www.inkscape.org/namespaces/inkscape"
   width="210mm"
   height="297mm"
   viewBox="0 0 744.09448819 1052.3622047"
   id="svg2"
   version="1.1"
   inkscape:version="0.91 r13725"
   sodipodi:docname="logo.svg">
  <defs
     id="defs4">
    <inkscape:path-effect
       effect="spiro"
       id="path-effect3353"
       is_visible="true" />
  </defs>
  <sodipodi:namedview
     id="base"
     pagecolor="#ffffff"
     bordercolor="#666666"
     borderopacity="1.0"
     inkscape:pageopacity="0.0"
     inkscape:pageshadow="2"
     inkscape:zoom="0.98994949"
     inkscape:cx="385.10664"
     inkscape:cy="682.65592"
     inkscape:document-units="px"
     inkscape:current-layer="layer1"
     showgrid="false"
     inkscape:window-width="1920"
     inkscape:window-height="1018"
     inkscape:window-x="-8"
     inkscape:window-y="-8"
     inkscape:window-maximized="1" />
  <metadata
     id="metadata7">
    <rdf:RDF>
      <cc:Work
         rdf:about="">
        <dc:format>image/svg+xml</dc:format>
        <dc:type
           rdf:resource="http://purl.org/dc/dcmitype/StillImage" />
        <dc:title></dc:title>
      </cc:Work>
    </rdf:RDF>
  </metadata>
  <g
     inkscape:label="Layer 1"
     inkscape:groupmode="layer"
     id="layer1">
    <text
       xml:space="preserve"
       style="font-style:normal;font-variant:normal;font-weight:normal;font-stretch:normal;font-size:378.59054565px;line-height:125%;font-family:Lobster;-inkscape-font-specification:Lobster;letter-spacing:0px;word-spacing:0px;fill:#000000;fill-opacity:1;stroke:none;stroke-width:1px;stroke-linecap:butt;stroke-linejoin:miter;stroke-opacity:1"
       x="-32.048737"
       y="546.96979"
       id="text3336"
       sodipodi:linespacing="125%"
       transform="matrix(0.77078157,-0.6370995,0.6370995,0.77078157,0,0)"
       inkscape:export-xdpi="414.18811"
       inkscape:export-ydpi="414.18811"><tspan
         sodipodi:role="line"
         id="tspan3338"
         x="-32.048737"
         y="546.96979">C</tspan></text>
    <path
       d="m 290.03518,636.6058 c -11.7167,-0.33428 -23.45511,-0.89039 -26.0854,-1.23579 -7.914,-1.03929 -17.65203,-3.1685 -19.9158,-4.35461 -2.05871,-1.07868 -2.07229,-1.14569 -0.41188,-2.03433 3.42309,-1.83198 16.49978,-4.65592 33.23438,-7.17705 9.40034,-1.41618 19.83049,-3.21085 23.17812,-3.98816 19.6144,-4.55433 27.48554,-14.58122 31.30386,-39.87734 3.05875,-20.26406 3.88283,-106.62668 1.33994,-140.42641 -2.25931,-30.03044 -5.86416,-52.27173 -10.91732,-67.35774 -1.60244,-4.784 -2.80921,-8.80252 -2.68172,-8.93001 0.1275,-0.1275 3.32893,0.57727 7.11429,1.56615 12.23968,3.19747 31.09856,2.18321 42.39612,-2.28015 1.52217,-0.60139 1.51631,-0.46325 -0.11714,2.75161 -5.02614,9.89269 -8.97654,28.01907 -11.44432,52.5123 -4.35605,43.2345 -6.12963,75.33694 -6.11826,110.74205 0.0128,39.70148 1.93644,57.82676 7.43867,70.08733 2.78378,6.20309 6.60573,9.82112 15.07724,14.27278 11.83689,6.22011 24.25472,9.48605 50.17561,13.19643 16.64781,2.38301 24.55898,4.86815 21.84339,6.86164 -4.26731,3.13256 -22.61449,4.56361 -72.80605,5.67873 -41.66396,0.92565 -49.92419,0.92492 -82.60379,-0.007 l 0,3.9e-4 z"
       id="path3361"
       inkscape:connector-curvature="0"
       inkscape:export-xdpi="414.18811"
       inkscape:export-ydpi="414.18811" />
  </g>
</svg>
